<svg xmlns="http://www.w3.org/2000/svg" version="1.1" xmlns:xlink="http://www.w3.org/1999/xlink" xmlns:svgjs="http://svgjs.dev/svgjs" width="1500" height="935" viewBox="0 0 1500 935"><g transform="matrix(1,0,0,1,-0.9090909090909918,0.3785425101214628)"><svg viewBox="0 0 396 247" data-background-color="#ffffff" preserveAspectRatio="xMidYMid meet" height="935" width="1500" xmlns="http://www.w3.org/2000/svg" xmlns:xlink="http://www.w3.org/1999/xlink"><g id="tight-bounds" transform="matrix(1,0,0,1,0.2400000000000091,-0.09999999999999432)"><svg viewBox="0 0 395.52 247.2" height="247.2" width="395.52"><g><svg></svg></g><g><svg viewBox="0 0 395.52 247.2" height="247.2" width="395.52"><mask id="3a26e6b7-92e1-47bc-bb21-026675b2de53"><rect width="640" height="400" fill="white"></rect><g transform="matrix(1,0,0,1,39.55199999999999,66.06447988496481)"><svg viewBox="0 0 316.416 115.07104023007035" height="115.07104023007035" width="316.416"><g><svg viewBox="0 0 316.416 115.07104023007035" height="115.07104023007035" width="316.416"><g><svg viewBox="0 0 316.416 115.07104023007035" height="115.07104023007035" width="316.416"><g><svg viewBox="0 0 316.416 115.07104023007035" height="115.07104023007035" width="316.416"><g id="SvgjsG1856"><svg viewBox="0 0 316.416 115.07104023007035" height="115.07104023007035" width="316.416" id="SvgjsSvg1855"><g><svg viewBox="0 0 316.416 82.58936610691231" height="82.58936610691231" width="316.416"><g transform="matrix(1,0,0,1,0,0)"><svg width="316.416" viewBox="2.98 -36.91 171.03 45.379999999999995" height="82.58936610691231" data-palette-color="#912a66"><path d="M29.22-4.47L29.22 0 3.98 0 3.98-35.16 13.67-35.16 13.67-4.47 29.22-4.47ZM59.03-4.49L59.03 0 33.79 0 33.79-35.16 59.03-35.16 59.03-30.66 43.48-30.66 43.48-19.8 55.49-19.8 55.49-15.33 43.48-15.33 43.48-4.49 59.03-4.49ZM98.51-16.82L98.51-16.82 98.51-16.36Q98.46-14.31 98.08-12.11 97.7-9.91 97.02-7.71 96.33-5.52 95.38-3.37 94.43-1.22 93.24 0.74 92.06 2.71 90.69 4.43 89.33 6.15 87.81 7.47L87.81 7.47 84.17 5.37Q85.03 3.93 85.72 2.23 86.42 0.54 86.98-1.32 87.54-3.17 87.95-5.13 88.35-7.08 88.62-9.01 88.89-10.94 89.02-12.81 89.16-14.67 89.16-16.36L89.16-16.36Q89.16-17.68 89.14-19.35 89.13-21.02 88.95-22.75 88.76-24.49 88.35-26.14 87.93-27.78 87.12-29.08 86.3-30.37 85.02-31.15 83.74-31.93 81.83-31.93L81.83-31.93Q80.15-31.93 78.94-31.36 77.73-30.79 76.89-29.82 76.04-28.86 75.54-27.59 75.04-26.32 74.76-24.91 74.48-23.51 74.4-22.08 74.31-20.65 74.31-19.38L74.31-19.38 74.31-12.57 84.83-12.57 84.83-8.54 74.31-8.54 74.31 0 64.62 0 64.62-17.87Q64.62-21.7 65.84-25 67.06-28.3 69.29-30.73 71.53-33.15 74.67-34.53 77.8-35.91 81.66-35.91L81.66-35.91Q84.27-35.91 86.56-35.17 88.84-34.42 90.72-33.12 92.6-31.81 94.07-30.02 95.55-28.22 96.54-26.1 97.53-23.97 98.04-21.61 98.55-19.24 98.51-16.82ZM114.49-13.13L114.49 0 104.8 0 104.8-35.16 122.09-35.16Q124.53-35.16 126.8-34.58 129.07-34.01 130.82-32.78 132.56-31.54 133.6-29.59 134.64-27.64 134.64-24.85L134.64-24.85Q134.64-22.68 133.72-20.76 132.81-18.85 131.28-17.35 129.75-15.84 127.78-14.86 125.8-13.87 123.67-13.55L123.67-13.55Q124.63-11.94 125.66-10.5 126.7-9.06 127.76-7.8 128.83-6.54 129.88-5.48 130.93-4.42 131.88-3.54L131.88-3.54Q134.12-1.49 136.32 0L136.32 0 124.24 0Q122.77-1.39 121.45-3.34L121.45-3.34Q120.33-5 119.19-7.46 118.06-9.91 117.45-13.13L117.45-13.13 114.49-13.13ZM124.8-24.85L124.8-24.85Q124.8-28.39 123.08-30.05 121.35-31.71 117.91-31.71L117.91-31.71 114.49-31.71 114.49-16.46 117.91-16.46Q119.74-16.46 121.05-17.15 122.36-17.85 123.19-19.01 124.02-20.17 124.41-21.68 124.8-23.19 124.8-24.85ZM145.38-24.12L145.38 0 140.88 0 140.88-35.16 147.18-35.16 168.54-11.01 168.54-35.16 173.01-35.16 173.01 0 166.71 0 145.38-24.12Z" opacity="1" transform="matrix(1,0,0,1,0,0)" fill="black" class="wordmark-text-0" id="SvgjsPath1854" stroke-width="1" stroke="black" stroke-linejoin="round"></path></svg></g></svg></g><g transform="matrix(1,0,0,1,58.85196000000002,101.64744301842825)"><svg viewBox="0 0 198.71207999999996 13.42359721164211" height="13.42359721164211" width="198.71207999999996"><g transform="matrix(1,0,0,1,0,0)"><svg width="198.71207999999996" viewBox="2.85 -37 696.68 48" height="13.42359721164211" data-palette-color="#c53683"><path d="M3.85 0L3.85-36 7.6-36 7.6 0 3.85 0ZM25.75 0.35L25.75 0.35Q22.25 0.35 19.52-1.35 16.8-3.05 15.25-6 13.7-8.95 13.7-12.75L13.7-12.75Q13.7-16.4 15.25-19.25 16.8-22.1 19.5-23.73 22.2-25.35 25.65-25.35L25.65-25.35Q29.05-25.35 31.72-23.85 34.4-22.35 35.9-19.7 37.4-17.05 37.3-13.65L37.3-13.65Q37.3-13.1 37.25-12.5 37.2-11.9 37.15-11.2L37.15-11.2 17.8-11.2Q17.9-8.85 18.95-7.05 20-5.25 21.72-4.23 23.45-3.2 25.65-3.2L25.65-3.2Q28.55-3.2 30.57-4.3 32.6-5.4 33.5-7.45L33.5-7.45 36.75-6.15Q35.25-3 32.4-1.33 29.55 0.35 25.75 0.35ZM17.85-14.45L33.2-14.45Q33.25-16.6 32.27-18.25 31.3-19.9 29.55-20.85 27.8-21.8 25.5-21.8L25.5-21.8Q23.5-21.8 21.85-20.85 20.2-19.9 19.12-18.23 18.05-16.55 17.85-14.45L17.85-14.45ZM62.55 0L59.1 0 58.8-4.5Q57.75-2.2 55.7-0.93 53.65 0.35 50.5 0.35L50.5 0.35Q47.8 0.35 45.9-0.5 44-1.35 42.97-2.93 41.95-4.5 41.95-6.65L41.95-6.65Q41.95-9.8 44.3-11.83 46.65-13.85 51.1-14.3L51.1-14.3 58.8-15.15 58.8-17.15Q58.8-19.25 57.25-20.53 55.7-21.8 53.05-21.8L53.05-21.8Q50.45-21.8 48.72-20.6 47-19.4 46.35-17.15L46.35-17.15 42.95-18.35Q43.95-21.65 46.62-23.5 49.3-25.35 53.15-25.35L53.15-25.35Q57.6-25.35 60.07-23.08 62.55-20.8 62.55-16.9L62.55-16.9 62.55 0ZM58.8-11.15L58.8-11.95 51.05-11.05Q48.55-10.75 47.25-9.68 45.95-8.6 45.95-6.85L45.95-6.85Q45.95-5.1 47.22-4.05 48.5-3 50.9-3L50.9-3Q53.65-3 55.4-4.1 57.15-5.2 57.97-7.08 58.8-8.95 58.8-11.15L58.8-11.15ZM69.84 0L69.84-25 73.29-25 73.49-21.35Q74.49-22.7 75.92-23.65 77.34-24.6 79.07-24.98 80.79-25.35 82.74-25L82.74-25 82.74-21.25Q80.64-21.65 78.97-21.25 77.29-20.85 76.09-19.75 74.89-18.65 74.24-16.98 73.59-15.3 73.59-13.1L73.59-13.1 73.59 0 69.84 0ZM87.84 0L87.84-25 91.29-25 91.49-21.45Q92.69-23.3 94.64-24.33 96.59-25.35 99.19-25.35L99.19-25.35Q102.04-25.35 104.19-24.13 106.34-22.9 107.54-20.48 108.74-18.05 108.74-14.4L108.74-14.4 108.74 0 104.99 0 104.99-13.95Q104.99-17.85 103.32-19.88 101.64-21.9 98.49-21.9L98.49-21.9Q95.24-21.9 93.42-19.75 91.59-17.6 91.59-13.4L91.59-13.4 91.59 0 87.84 0ZM116.74 0L116.74-25 120.44-25 120.44 0 116.74 0ZM118.64-30L118.64-30Q117.49-30 116.74-30.75 115.99-31.5 115.99-32.6L115.99-32.6Q115.99-33.75 116.74-34.5 117.49-35.25 118.64-35.25L118.64-35.25Q119.69-35.25 120.46-34.5 121.24-33.75 121.24-32.6L121.24-32.6Q121.24-31.5 120.46-30.75 119.69-30 118.64-30ZM128.89 0L128.89-25 132.34-25 132.54-21.45Q133.74-23.3 135.69-24.33 137.64-25.35 140.24-25.35L140.24-25.35Q143.09-25.35 145.24-24.13 147.39-22.9 148.59-20.48 149.79-18.05 149.79-14.4L149.79-14.4 149.79 0 146.04 0 146.04-13.95Q146.04-17.85 144.36-19.88 142.69-21.9 139.54-21.9L139.54-21.9Q136.29-21.9 134.46-19.75 132.64-17.6 132.64-13.4L132.64-13.4 132.64 0 128.89 0ZM175.98-20.35L176.23-25 179.68-25 179.68-4.6Q179.68 0 177.63 3.28 175.58 6.55 171.68 8.28 167.78 10 162.18 10L162.18 10 161.58 6.55Q168.63 6.45 172.28 3.63 175.93 0.8 175.93-4.6L175.93-4.6 175.93-5.15 176.33-5.05Q175.18-2.85 172.88-1.28 170.58 0.3 166.93 0.35L166.93 0.35Q163.48 0.35 160.91-1.23 158.33-2.8 156.91-5.7 155.48-8.6 155.48-12.5L155.48-12.5Q155.48-16.4 156.91-19.28 158.33-22.15 160.91-23.75 163.48-25.35 166.93-25.35L166.93-25.35Q169.18-25.35 170.93-24.68 172.68-24 173.93-22.88 175.18-21.75 175.98-20.35L175.98-20.35ZM159.53-12.5L159.53-12.5Q159.53-8.2 161.76-5.68 163.98-3.15 167.78-3.15L167.78-3.15Q170.08-3.15 171.93-4.25 173.78-5.35 174.86-7.45 175.93-9.55 175.93-12.5L175.93-12.5Q175.93-15.45 174.86-17.53 173.78-19.6 171.93-20.73 170.08-21.85 167.78-21.85L167.78-21.85Q164.03-21.85 161.78-19.3 159.53-16.75 159.53-12.5ZM201.33 0L201.33-25 204.78-25 205.03-21.4Q206.13-23.2 208-24.28 209.88-25.35 212.48-25.35L212.48-25.35Q215.13-25.35 217.3-24.08 219.48-22.8 220.68-20.3L220.68-20.3Q221.83-22.85 224.18-24.1 226.53-25.35 229.38-25.35L229.38-25.35Q232.18-25.35 234.33-24.13 236.48-22.9 237.68-20.48 238.88-18.05 238.88-14.4L238.88-14.4 238.88 0 235.13 0 235.13-13.95Q235.13-17.85 233.45-19.88 231.78-21.9 228.68-21.9L228.68-21.9Q225.53-21.9 223.68-19.73 221.83-17.55 221.83-13.3L221.83-13.3 221.83 0 218.08 0 218.08-13.95Q218.08-17.85 216.48-19.88 214.88-21.9 211.78-21.9L211.78-21.9Q208.63-21.9 206.85-19.73 205.08-17.55 205.08-13.3L205.08-13.3 205.08 0 201.33 0ZM265.23 0L261.78 0 261.48-4.5Q260.43-2.2 258.38-0.93 256.33 0.35 253.18 0.35L253.18 0.35Q250.48 0.35 248.58-0.5 246.68-1.35 245.65-2.93 244.63-4.5 244.63-6.65L244.63-6.65Q244.63-9.8 246.98-11.83 249.33-13.85 253.78-14.3L253.78-14.3 261.48-15.15 261.48-17.15Q261.48-19.25 259.93-20.53 258.38-21.8 255.73-21.8L255.73-21.8Q253.13-21.8 251.4-20.6 249.68-19.4 249.03-17.15L249.03-17.15 245.63-18.35Q246.63-21.65 249.3-23.5 251.98-25.35 255.83-25.35L255.83-25.35Q260.28-25.35 262.75-23.08 265.23-20.8 265.23-16.9L265.23-16.9 265.23 0ZM261.48-11.15L261.48-11.95 253.73-11.05Q251.23-10.75 249.93-9.68 248.63-8.6 248.63-6.85L248.63-6.85Q248.63-5.1 249.9-4.05 251.18-3 253.58-3L253.58-3Q256.33-3 258.08-4.1 259.83-5.2 260.65-7.08 261.48-8.95 261.48-11.15L261.48-11.15ZM272.52 0L272.52-25 275.97-25 276.17-21.45Q277.37-23.3 279.32-24.33 281.27-25.35 283.87-25.35L283.87-25.35Q286.72-25.35 288.87-24.13 291.02-22.9 292.22-20.48 293.42-18.05 293.42-14.4L293.42-14.4 293.42 0 289.67 0 289.67-13.95Q289.67-17.85 288-19.88 286.32-21.9 283.17-21.9L283.17-21.9Q279.92-21.9 278.1-19.75 276.27-17.6 276.27-13.4L276.27-13.4 276.27 0 272.52 0ZM319.77 0L316.32 0 316.02-4.5Q314.97-2.2 312.92-0.93 310.87 0.35 307.72 0.35L307.72 0.35Q305.02 0.35 303.12-0.5 301.22-1.35 300.2-2.93 299.17-4.5 299.17-6.65L299.17-6.65Q299.17-9.8 301.52-11.83 303.87-13.85 308.32-14.3L308.32-14.3 316.02-15.15 316.02-17.15Q316.02-19.25 314.47-20.53 312.92-21.8 310.27-21.8L310.27-21.8Q307.67-21.8 305.95-20.6 304.22-19.4 303.57-17.15L303.57-17.15 300.17-18.35Q301.17-21.65 303.85-23.5 306.52-25.35 310.37-25.35L310.37-25.35Q314.82-25.35 317.3-23.08 319.77-20.8 319.77-16.9L319.77-16.9 319.77 0ZM316.02-11.15L316.02-11.95 308.27-11.05Q305.77-10.75 304.47-9.68 303.17-8.6 303.17-6.85L303.17-6.85Q303.17-5.1 304.45-4.05 305.72-3 308.12-3L308.12-3Q310.87-3 312.62-4.1 314.37-5.2 315.2-7.08 316.02-8.95 316.02-11.15L316.02-11.15ZM346.02-20.35L346.27-25 349.72-25 349.72-4.6Q349.72 0 347.67 3.28 345.62 6.55 341.72 8.28 337.82 10 332.22 10L332.22 10 331.62 6.55Q338.67 6.45 342.32 3.63 345.97 0.8 345.97-4.6L345.97-4.6 345.97-5.15 346.37-5.05Q345.22-2.85 342.92-1.28 340.62 0.3 336.97 0.35L336.97 0.35Q333.52 0.35 330.94-1.23 328.37-2.8 326.94-5.7 325.52-8.6 325.52-12.5L325.52-12.5Q325.52-16.4 326.94-19.28 328.37-22.15 330.94-23.75 333.52-25.35 336.97-25.35L336.97-25.35Q339.22-25.35 340.97-24.68 342.72-24 343.97-22.88 345.22-21.75 346.02-20.35L346.02-20.35ZM329.57-12.5L329.57-12.5Q329.57-8.2 331.79-5.68 334.02-3.15 337.82-3.15L337.82-3.15Q340.12-3.15 341.97-4.25 343.82-5.35 344.89-7.45 345.97-9.55 345.97-12.5L345.97-12.5Q345.97-15.45 344.89-17.53 343.82-19.6 341.97-20.73 340.12-21.85 337.82-21.85L337.82-21.85Q334.07-21.85 331.82-19.3 329.57-16.75 329.57-12.5ZM367.87 0.35L367.87 0.35Q364.37 0.35 361.64-1.35 358.92-3.05 357.37-6 355.82-8.95 355.82-12.75L355.82-12.75Q355.82-16.4 357.37-19.25 358.92-22.1 361.62-23.73 364.32-25.35 367.77-25.35L367.77-25.35Q371.17-25.35 373.84-23.85 376.52-22.35 378.02-19.7 379.52-17.05 379.42-13.65L379.42-13.65Q379.42-13.1 379.37-12.5 379.32-11.9 379.27-11.2L379.27-11.2 359.92-11.2Q360.02-8.85 361.07-7.05 362.12-5.25 363.84-4.23 365.57-3.2 367.77-3.2L367.77-3.2Q370.67-3.2 372.69-4.3 374.72-5.4 375.62-7.45L375.62-7.45 378.87-6.15Q377.37-3 374.52-1.33 371.67 0.35 367.87 0.35ZM359.97-14.45L375.32-14.45Q375.37-16.6 374.39-18.25 373.42-19.9 371.67-20.85 369.92-21.8 367.62-21.8L367.62-21.8Q365.62-21.8 363.97-20.85 362.32-19.9 361.24-18.23 360.17-16.55 359.97-14.45L359.97-14.45ZM385.56 0L385.56-25 389.01-25 389.26-21.4Q390.36-23.2 392.24-24.28 394.11-25.35 396.71-25.35L396.71-25.35Q399.36-25.35 401.54-24.08 403.71-22.8 404.91-20.3L404.91-20.3Q406.06-22.85 408.41-24.1 410.76-25.35 413.61-25.35L413.61-25.35Q416.41-25.35 418.56-24.13 420.71-22.9 421.91-20.48 423.11-18.05 423.11-14.4L423.11-14.4 423.11 0 419.36 0 419.36-13.95Q419.36-17.85 417.69-19.88 416.01-21.9 412.91-21.9L412.91-21.9Q409.76-21.9 407.91-19.73 406.06-17.55 406.06-13.3L406.06-13.3 406.06 0 402.31 0 402.31-13.95Q402.31-17.85 400.71-19.88 399.11-21.9 396.01-21.9L396.01-21.9Q392.86-21.9 391.09-19.73 389.31-17.55 389.31-13.3L389.31-13.3 389.31 0 385.56 0ZM440.86 0.35L440.86 0.35Q437.36 0.35 434.64-1.35 431.91-3.05 430.36-6 428.81-8.95 428.81-12.75L428.81-12.75Q428.81-16.4 430.36-19.25 431.91-22.1 434.61-23.73 437.31-25.35 440.76-25.35L440.76-25.35Q444.16-25.35 446.84-23.85 449.51-22.35 451.01-19.7 452.51-17.05 452.41-13.65L452.41-13.65Q452.41-13.1 452.36-12.5 452.31-11.9 452.26-11.2L452.26-11.2 432.91-11.2Q433.01-8.85 434.06-7.05 435.11-5.25 436.84-4.23 438.56-3.2 440.76-3.2L440.76-3.2Q443.66-3.2 445.69-4.3 447.71-5.4 448.61-7.45L448.61-7.45 451.86-6.15Q450.36-3 447.51-1.33 444.66 0.35 440.86 0.35ZM432.96-14.45L448.31-14.45Q448.36-16.6 447.39-18.25 446.41-19.9 444.66-20.85 442.91-21.8 440.61-21.8L440.61-21.8Q438.61-21.8 436.96-20.85 435.31-19.9 434.24-18.23 433.16-16.55 432.96-14.45L432.96-14.45ZM458.56 0L458.56-25 462.01-25 462.21-21.45Q463.41-23.3 465.36-24.33 467.31-25.35 469.91-25.35L469.91-25.35Q472.76-25.35 474.91-24.13 477.06-22.9 478.26-20.48 479.46-18.05 479.46-14.4L479.46-14.4 479.46 0 475.71 0 475.71-13.95Q475.71-17.85 474.03-19.88 472.36-21.9 469.21-21.9L469.21-21.9Q465.96-21.9 464.13-19.75 462.31-17.6 462.31-13.4L462.31-13.4 462.31 0 458.56 0ZM484.56-25L488.31-25 488.31-32 492.06-32 492.06-25 498.71-25 498.71-21.5 492.06-21.5 492.06-8.05Q492.06-5.75 493.03-4.7 494-3.65 495.53-3.45 497.06-3.25 498.71-3.45L498.71-3.45 498.71-0.2Q496.75 0.25 494.88 0.05 493-0.15 491.53-1.07 490.06-2 489.18-3.7 488.31-5.4 488.31-8.05L488.31-8.05 488.31-21.5 484.56-21.5 484.56-25ZM502.75-6.45L506.35-7.65Q506.65-6.15 507.45-5.18 508.25-4.2 509.53-3.7 510.8-3.2 512.5-3.2L512.5-3.2Q515.15-3.2 516.53-4.23 517.9-5.25 517.9-6.8L517.9-6.8Q517.9-8.1 517.08-8.9 516.25-9.7 514.9-10.23 513.55-10.75 511.9-11.15L511.9-11.15Q510.6-11.45 509.1-11.88 507.6-12.3 506.25-13.05 504.9-13.8 504.05-15 503.2-16.2 503.2-18.15L503.2-18.15Q503.2-20.3 504.38-21.93 505.55-23.55 507.63-24.45 509.7-25.35 512.4-25.35L512.4-25.35Q515.5-25.35 517.93-24 520.35-22.65 521.3-19.8L521.3-19.8 517.8-18.6Q517.45-19.9 516.53-20.6 515.6-21.3 514.48-21.55 513.35-21.8 512.25-21.8L512.25-21.8Q510-21.8 508.63-20.93 507.25-20.05 507.25-18.3L507.25-18.3Q507.25-17.35 507.7-16.73 508.15-16.1 508.95-15.7 509.75-15.3 510.85-15.03 511.95-14.75 513.25-14.4L513.25-14.4Q514.7-14.05 516.2-13.53 517.7-13 519-12.18 520.3-11.35 521.13-10.08 521.95-8.8 521.95-6.9L521.95-6.9Q521.95-4.7 520.75-3.08 519.55-1.45 517.43-0.55 515.3 0.35 512.5 0.35L512.5 0.35Q508.65 0.35 506.13-1.38 503.6-3.1 502.75-6.45L502.75-6.45ZM540.5-6.45L544.1-7.65Q544.4-6.15 545.2-5.18 546-4.2 547.27-3.7 548.55-3.2 550.25-3.2L550.25-3.2Q552.9-3.2 554.27-4.23 555.65-5.25 555.65-6.8L555.65-6.8Q555.65-8.1 554.82-8.9 554-9.7 552.65-10.23 551.3-10.75 549.65-11.15L549.65-11.15Q548.35-11.45 546.85-11.88 545.35-12.3 544-13.05 542.65-13.8 541.8-15 540.95-16.2 540.95-18.15L540.95-18.15Q540.95-20.3 542.12-21.93 543.3-23.55 545.37-24.45 547.45-25.35 550.15-25.35L550.15-25.35Q553.25-25.35 555.67-24 558.1-22.65 559.05-19.8L559.05-19.8 555.55-18.6Q555.2-19.9 554.27-20.6 553.35-21.3 552.22-21.55 551.1-21.8 550-21.8L550-21.8Q547.75-21.8 546.37-20.93 545-20.05 545-18.3L545-18.3Q545-17.35 545.45-16.73 545.9-16.1 546.7-15.7 547.5-15.3 548.6-15.03 549.7-14.75 551-14.4L551-14.4Q552.45-14.05 553.95-13.53 555.45-13 556.75-12.18 558.05-11.35 558.87-10.08 559.7-8.8 559.7-6.9L559.7-6.9Q559.7-4.7 558.5-3.08 557.3-1.45 555.17-0.55 553.05 0.35 550.25 0.35L550.25 0.35Q546.4 0.35 543.87-1.38 541.35-3.1 540.5-6.45L540.5-6.45ZM574.99-4.8L582.74-25 586.64-25 572.34 10 568.74 10 572.99-0.35 562.89-25 566.99-25 574.99-4.8ZM589.89-6.45L593.49-7.65Q593.79-6.15 594.59-5.18 595.39-4.2 596.67-3.7 597.94-3.2 599.64-3.2L599.64-3.2Q602.29-3.2 603.67-4.23 605.04-5.25 605.04-6.8L605.04-6.8Q605.04-8.1 604.22-8.9 603.39-9.7 602.04-10.23 600.69-10.75 599.04-11.15L599.04-11.15Q597.74-11.45 596.24-11.88 594.74-12.3 593.39-13.05 592.04-13.8 591.19-15 590.34-16.2 590.34-18.15L590.34-18.15Q590.34-20.3 591.52-21.93 592.69-23.55 594.77-24.45 596.84-25.35 599.54-25.35L599.54-25.35Q602.64-25.35 605.07-24 607.49-22.65 608.44-19.8L608.44-19.8 604.94-18.6Q604.59-19.9 603.67-20.6 602.74-21.3 601.62-21.55 600.49-21.8 599.39-21.8L599.39-21.8Q597.14-21.8 595.77-20.93 594.39-20.05 594.39-18.3L594.39-18.3Q594.39-17.35 594.84-16.73 595.29-16.1 596.09-15.7 596.89-15.3 597.99-15.03 599.09-14.75 600.39-14.4L600.39-14.4Q601.84-14.05 603.34-13.53 604.84-13 606.14-12.18 607.44-11.35 608.27-10.08 609.09-8.8 609.09-6.9L609.09-6.9Q609.09-4.7 607.89-3.08 606.69-1.45 604.57-0.55 602.44 0.35 599.64 0.35L599.64 0.35Q595.79 0.35 593.27-1.38 590.74-3.1 589.89-6.45L589.89-6.45ZM613.04-25L616.79-25 616.79-32 620.54-32 620.54-25 627.19-25 627.19-21.5 620.54-21.5 620.54-8.05Q620.54-5.75 621.51-4.7 622.49-3.65 624.01-3.45 625.54-3.25 627.19-3.45L627.19-3.45 627.19-0.2Q625.24 0.25 623.36 0.05 621.49-0.15 620.01-1.07 618.54-2 617.66-3.7 616.79-5.4 616.79-8.05L616.79-8.05 616.79-21.5 613.04-21.5 613.04-25ZM643.29 0.35L643.29 0.35Q639.79 0.35 637.06-1.35 634.34-3.05 632.79-6 631.24-8.95 631.24-12.75L631.24-12.75Q631.24-16.4 632.79-19.25 634.34-22.1 637.04-23.73 639.74-25.35 643.19-25.35L643.19-25.35Q646.59-25.35 649.26-23.85 651.94-22.35 653.44-19.7 654.94-17.05 654.84-13.65L654.84-13.65Q654.84-13.1 654.79-12.5 654.74-11.9 654.69-11.2L654.69-11.2 635.34-11.2Q635.44-8.85 636.49-7.05 637.54-5.25 639.26-4.23 640.99-3.2 643.19-3.2L643.19-3.2Q646.09-3.2 648.11-4.3 650.14-5.4 651.04-7.45L651.04-7.45 654.29-6.15Q652.79-3 649.94-1.33 647.09 0.35 643.29 0.35ZM635.39-14.45L650.74-14.45Q650.79-16.6 649.81-18.25 648.84-19.9 647.09-20.85 645.34-21.8 643.04-21.8L643.04-21.8Q641.04-21.8 639.39-20.85 637.74-19.9 636.66-18.23 635.59-16.55 635.39-14.45L635.39-14.45ZM660.98 0L660.98-25 664.43-25 664.68-21.4Q665.78-23.2 667.66-24.28 669.53-25.35 672.13-25.35L672.13-25.35Q674.78-25.35 676.96-24.08 679.13-22.8 680.33-20.3L680.33-20.3Q681.48-22.85 683.83-24.1 686.18-25.35 689.03-25.35L689.03-25.35Q691.83-25.35 693.98-24.13 696.13-22.9 697.33-20.48 698.53-18.05 698.53-14.4L698.53-14.4 698.53 0 694.78 0 694.78-13.95Q694.78-17.85 693.11-19.88 691.43-21.9 688.33-21.9L688.33-21.9Q685.18-21.9 683.33-19.73 681.48-17.55 681.48-13.3L681.48-13.3 681.48 0 677.73 0 677.73-13.95Q677.73-17.85 676.13-19.88 674.53-21.9 671.43-21.9L671.43-21.9Q668.28-21.9 666.51-19.73 664.73-17.55 664.73-13.3L664.73-13.3 664.73 0 660.98 0Z" opacity="1" transform="matrix(1,0,0,1,0,0)" fill="black" class="slogan-text-1" id="SvgjsPath1853" stroke-width="1" stroke="black" stroke-linejoin="round"></path></svg></g></svg></g></svg></g></svg></g><g></g></svg></g></svg></g></svg></g></mask><g transform="matrix(1,0,0,1,39.55199999999999,66.06447988496481)"><svg viewBox="0 0 316.416 115.07104023007035" height="115.07104023007035" width="316.416"><g><svg viewBox="0 0 316.416 115.07104023007035" height="115.07104023007035" width="316.416"><g><svg viewBox="0 0 316.416 115.07104023007035" height="115.07104023007035" width="316.416"><g><svg viewBox="0 0 316.416 115.07104023007035" height="115.07104023007035" width="316.416"><g id="textblocktransform"><svg viewBox="0 0 316.416 115.07104023007035" height="115.07104023007035" width="316.416" id="textblock"><g><svg viewBox="0 0 316.416 82.58936610691231" height="82.58936610691231" width="316.416"><g transform="matrix(1,0,0,1,0,0)"><svg width="316.416" viewBox="2.98 -36.91 171.03 45.379999999999995" height="82.58936610691231" data-palette-color="#912a66"><path d="M29.22-4.47L29.22 0 3.98 0 3.98-35.16 13.67-35.16 13.67-4.47 29.22-4.47ZM59.03-4.49L59.03 0 33.79 0 33.79-35.16 59.03-35.16 59.03-30.66 43.48-30.66 43.48-19.8 55.49-19.8 55.49-15.33 43.48-15.33 43.48-4.49 59.03-4.49ZM98.51-16.82L98.51-16.82 98.51-16.36Q98.46-14.31 98.08-12.11 97.7-9.91 97.02-7.71 96.33-5.52 95.38-3.37 94.43-1.22 93.24 0.74 92.06 2.71 90.69 4.43 89.33 6.15 87.81 7.47L87.81 7.47 84.17 5.37Q85.03 3.93 85.72 2.23 86.42 0.54 86.98-1.32 87.54-3.17 87.95-5.13 88.35-7.08 88.62-9.01 88.89-10.94 89.02-12.81 89.16-14.67 89.16-16.36L89.16-16.36Q89.16-17.68 89.14-19.35 89.13-21.02 88.95-22.75 88.76-24.49 88.35-26.14 87.93-27.78 87.12-29.08 86.3-30.37 85.02-31.15 83.74-31.93 81.83-31.93L81.83-31.93Q80.15-31.93 78.94-31.36 77.73-30.79 76.89-29.82 76.04-28.86 75.54-27.59 75.04-26.32 74.76-24.91 74.48-23.51 74.4-22.08 74.31-20.65 74.31-19.38L74.31-19.38 74.31-12.57 84.83-12.57 84.83-8.54 74.31-8.54 74.31 0 64.62 0 64.62-17.87Q64.62-21.7 65.84-25 67.06-28.3 69.29-30.73 71.53-33.15 74.67-34.53 77.8-35.91 81.66-35.91L81.66-35.91Q84.27-35.91 86.56-35.17 88.84-34.42 90.72-33.12 92.6-31.81 94.07-30.02 95.55-28.22 96.54-26.1 97.53-23.97 98.04-21.61 98.55-19.24 98.51-16.82ZM114.49-13.13L114.49 0 104.8 0 104.8-35.16 122.09-35.16Q124.53-35.16 126.8-34.58 129.07-34.01 130.82-32.78 132.56-31.54 133.6-29.59 134.64-27.64 134.64-24.85L134.64-24.85Q134.64-22.68 133.72-20.76 132.81-18.85 131.28-17.35 129.75-15.84 127.78-14.86 125.8-13.87 123.67-13.55L123.67-13.55Q124.63-11.94 125.66-10.5 126.7-9.06 127.76-7.8 128.83-6.54 129.88-5.48 130.93-4.42 131.88-3.54L131.88-3.54Q134.12-1.49 136.32 0L136.32 0 124.24 0Q122.77-1.39 121.45-3.34L121.45-3.34Q120.33-5 119.19-7.46 118.06-9.91 117.45-13.13L117.45-13.13 114.49-13.13ZM124.8-24.85L124.8-24.85Q124.8-28.39 123.08-30.05 121.35-31.71 117.91-31.71L117.91-31.71 114.49-31.71 114.49-16.46 117.91-16.46Q119.74-16.46 121.05-17.15 122.36-17.85 123.19-19.01 124.02-20.17 124.41-21.68 124.8-23.19 124.8-24.85ZM145.38-24.12L145.38 0 140.88 0 140.88-35.16 147.18-35.16 168.54-11.01 168.54-35.16 173.01-35.16 173.01 0 166.71 0 145.38-24.12Z" opacity="1" transform="matrix(1,0,0,1,0,0)" fill="#912a66" class="wordmark-text-0" data-fill-palette-color="primary" id="text-0"></path></svg></g></svg></g><g transform="matrix(1,0,0,1,58.85196000000002,101.64744301842825)"><svg viewBox="0 0 198.71207999999996 13.42359721164211" height="13.42359721164211" width="198.71207999999996"><g transform="matrix(1,0,0,1,0,0)"><svg width="198.71207999999996" viewBox="2.85 -37 696.68 48" height="13.42359721164211" data-palette-color="#c53683"><path d="M3.85 0L3.85-36 7.6-36 7.6 0 3.85 0ZM25.75 0.35L25.75 0.35Q22.25 0.35 19.52-1.35 16.8-3.05 15.25-6 13.7-8.95 13.7-12.75L13.7-12.75Q13.7-16.4 15.25-19.25 16.8-22.1 19.5-23.73 22.2-25.35 25.65-25.35L25.65-25.35Q29.05-25.35 31.72-23.85 34.4-22.35 35.9-19.7 37.4-17.05 37.3-13.65L37.3-13.65Q37.3-13.1 37.25-12.5 37.2-11.9 37.15-11.2L37.15-11.2 17.8-11.2Q17.9-8.85 18.95-7.05 20-5.25 21.72-4.23 23.45-3.2 25.65-3.2L25.65-3.2Q28.55-3.2 30.57-4.3 32.6-5.4 33.5-7.45L33.5-7.45 36.75-6.15Q35.25-3 32.4-1.33 29.55 0.35 25.75 0.35ZM17.85-14.45L33.2-14.45Q33.25-16.6 32.27-18.25 31.3-19.9 29.55-20.85 27.8-21.8 25.5-21.8L25.5-21.8Q23.5-21.8 21.85-20.85 20.2-19.9 19.12-18.23 18.05-16.55 17.85-14.45L17.85-14.45ZM62.55 0L59.1 0 58.8-4.5Q57.75-2.2 55.7-0.93 53.65 0.35 50.5 0.35L50.5 0.35Q47.8 0.35 45.9-0.5 44-1.35 42.97-2.93 41.95-4.5 41.95-6.65L41.95-6.65Q41.95-9.8 44.3-11.83 46.65-13.85 51.1-14.3L51.1-14.3 58.8-15.15 58.8-17.15Q58.8-19.25 57.25-20.53 55.7-21.8 53.05-21.8L53.05-21.8Q50.45-21.8 48.72-20.6 47-19.4 46.35-17.15L46.35-17.15 42.95-18.35Q43.95-21.65 46.62-23.5 49.3-25.35 53.15-25.35L53.15-25.35Q57.6-25.35 60.07-23.08 62.55-20.8 62.55-16.9L62.55-16.9 62.55 0ZM58.8-11.15L58.8-11.95 51.05-11.05Q48.55-10.75 47.25-9.68 45.95-8.6 45.95-6.85L45.95-6.85Q45.95-5.1 47.22-4.05 48.5-3 50.9-3L50.9-3Q53.65-3 55.4-4.1 57.15-5.2 57.97-7.08 58.8-8.95 58.8-11.15L58.8-11.15ZM69.84 0L69.84-25 73.29-25 73.49-21.35Q74.49-22.7 75.92-23.65 77.34-24.6 79.07-24.98 80.79-25.35 82.74-25L82.74-25 82.74-21.25Q80.64-21.65 78.97-21.25 77.29-20.85 76.09-19.75 74.89-18.65 74.24-16.98 73.59-15.3 73.59-13.1L73.59-13.1 73.59 0 69.84 0ZM87.84 0L87.84-25 91.29-25 91.49-21.45Q92.69-23.3 94.64-24.33 96.59-25.35 99.19-25.35L99.19-25.35Q102.04-25.35 104.19-24.13 106.34-22.9 107.54-20.48 108.74-18.05 108.74-14.4L108.74-14.4 108.74 0 104.99 0 104.99-13.95Q104.99-17.85 103.32-19.88 101.64-21.9 98.49-21.9L98.49-21.9Q95.24-21.9 93.42-19.75 91.59-17.6 91.59-13.4L91.59-13.4 91.59 0 87.84 0ZM116.74 0L116.74-25 120.44-25 120.44 0 116.74 0ZM118.64-30L118.64-30Q117.49-30 116.74-30.75 115.99-31.5 115.99-32.6L115.99-32.6Q115.99-33.75 116.74-34.5 117.49-35.25 118.64-35.25L118.64-35.25Q119.69-35.25 120.46-34.5 121.24-33.75 121.24-32.6L121.24-32.6Q121.24-31.5 120.46-30.75 119.69-30 118.64-30ZM128.89 0L128.89-25 132.34-25 132.54-21.45Q133.74-23.3 135.69-24.33 137.64-25.35 140.24-25.35L140.24-25.35Q143.09-25.35 145.24-24.13 147.39-22.9 148.59-20.48 149.79-18.05 149.79-14.4L149.79-14.4 149.79 0 146.04 0 146.04-13.95Q146.04-17.85 144.36-19.88 142.69-21.9 139.54-21.9L139.54-21.9Q136.29-21.9 134.46-19.75 132.64-17.6 132.64-13.4L132.64-13.4 132.64 0 128.89 0ZM175.98-20.35L176.23-25 179.68-25 179.68-4.6Q179.68 0 177.63 3.28 175.58 6.55 171.68 8.28 167.78 10 162.18 10L162.18 10 161.58 6.55Q168.63 6.45 172.28 3.63 175.93 0.8 175.93-4.6L175.93-4.6 175.93-5.15 176.33-5.05Q175.18-2.85 172.88-1.28 170.58 0.3 166.93 0.35L166.93 0.35Q163.48 0.35 160.91-1.23 158.33-2.8 156.91-5.7 155.48-8.6 155.48-12.5L155.48-12.5Q155.48-16.4 156.91-19.28 158.33-22.15 160.91-23.75 163.48-25.35 166.93-25.35L166.93-25.35Q169.18-25.35 170.93-24.68 172.68-24 173.93-22.88 175.18-21.75 175.98-20.35L175.98-20.35ZM159.53-12.5L159.53-12.5Q159.53-8.2 161.76-5.68 163.98-3.15 167.78-3.15L167.78-3.15Q170.08-3.15 171.93-4.25 173.78-5.35 174.86-7.45 175.93-9.55 175.93-12.5L175.93-12.5Q175.93-15.45 174.86-17.53 173.78-19.6 171.93-20.73 170.08-21.85 167.78-21.85L167.78-21.85Q164.03-21.85 161.78-19.3 159.53-16.75 159.53-12.5ZM201.33 0L201.33-25 204.78-25 205.03-21.4Q206.13-23.2 208-24.28 209.88-25.35 212.48-25.35L212.48-25.35Q215.13-25.35 217.3-24.08 219.48-22.8 220.68-20.3L220.68-20.3Q221.83-22.85 224.18-24.1 226.53-25.35 229.38-25.35L229.38-25.35Q232.18-25.35 234.33-24.13 236.48-22.9 237.68-20.48 238.88-18.05 238.88-14.4L238.88-14.4 238.88 0 235.13 0 235.13-13.95Q235.13-17.85 233.45-19.88 231.78-21.9 228.68-21.9L228.68-21.9Q225.53-21.9 223.68-19.73 221.83-17.55 221.83-13.3L221.83-13.3 221.83 0 218.08 0 218.08-13.95Q218.08-17.85 216.48-19.88 214.88-21.9 211.78-21.9L211.78-21.9Q208.63-21.9 206.85-19.73 205.08-17.55 205.08-13.3L205.08-13.3 205.08 0 201.33 0ZM265.23 0L261.78 0 261.48-4.5Q260.43-2.2 258.38-0.93 256.33 0.35 253.18 0.35L253.18 0.35Q250.48 0.35 248.58-0.5 246.68-1.35 245.65-2.93 244.63-4.5 244.63-6.65L244.63-6.65Q244.63-9.8 246.98-11.83 249.33-13.85 253.78-14.3L253.78-14.3 261.48-15.15 261.48-17.15Q261.48-19.25 259.93-20.53 258.38-21.8 255.73-21.8L255.73-21.8Q253.13-21.8 251.4-20.6 249.68-19.4 249.03-17.15L249.03-17.15 245.63-18.35Q246.63-21.65 249.3-23.5 251.98-25.35 255.83-25.35L255.83-25.35Q260.28-25.35 262.75-23.08 265.23-20.8 265.23-16.9L265.23-16.9 265.23 0ZM261.48-11.15L261.48-11.95 253.73-11.05Q251.23-10.75 249.93-9.68 248.63-8.6 248.63-6.85L248.63-6.85Q248.63-5.1 249.9-4.05 251.18-3 253.58-3L253.58-3Q256.33-3 258.08-4.1 259.83-5.2 260.65-7.08 261.48-8.95 261.48-11.15L261.48-11.15ZM272.52 0L272.52-25 275.97-25 276.17-21.45Q277.37-23.3 279.32-24.33 281.27-25.35 283.87-25.35L283.87-25.35Q286.72-25.35 288.87-24.13 291.02-22.9 292.22-20.48 293.42-18.05 293.42-14.4L293.42-14.4 293.42 0 289.67 0 289.67-13.95Q289.67-17.85 288-19.88 286.32-21.9 283.17-21.9L283.17-21.9Q279.92-21.9 278.1-19.75 276.27-17.6 276.27-13.4L276.27-13.4 276.27 0 272.52 0ZM319.77 0L316.32 0 316.02-4.5Q314.97-2.2 312.92-0.93 310.87 0.35 307.72 0.35L307.72 0.35Q305.02 0.35 303.12-0.5 301.22-1.35 300.2-2.93 299.17-4.5 299.17-6.65L299.17-6.65Q299.17-9.8 301.52-11.83 303.87-13.85 308.32-14.3L308.32-14.3 316.02-15.15 316.02-17.15Q316.02-19.25 314.47-20.53 312.92-21.8 310.27-21.8L310.27-21.8Q307.67-21.8 305.95-20.6 304.22-19.4 303.57-17.15L303.57-17.15 300.17-18.35Q301.17-21.65 303.85-23.5 306.52-25.35 310.37-25.35L310.37-25.35Q314.82-25.35 317.3-23.08 319.77-20.8 319.77-16.9L319.77-16.9 319.77 0ZM316.02-11.15L316.02-11.95 308.27-11.05Q305.77-10.75 304.47-9.68 303.17-8.6 303.17-6.85L303.17-6.85Q303.17-5.1 304.45-4.05 305.72-3 308.12-3L308.12-3Q310.87-3 312.62-4.1 314.37-5.2 315.2-7.08 316.02-8.95 316.02-11.15L316.02-11.15ZM346.02-20.35L346.27-25 349.72-25 349.72-4.6Q349.72 0 347.67 3.28 345.62 6.55 341.72 8.28 337.82 10 332.22 10L332.22 10 331.62 6.55Q338.67 6.45 342.32 3.63 345.97 0.8 345.97-4.6L345.97-4.6 345.97-5.15 346.37-5.05Q345.22-2.85 342.92-1.28 340.62 0.3 336.97 0.35L336.97 0.35Q333.52 0.35 330.94-1.23 328.37-2.8 326.94-5.7 325.52-8.6 325.52-12.5L325.52-12.5Q325.52-16.4 326.94-19.28 328.37-22.15 330.94-23.75 333.52-25.35 336.97-25.35L336.97-25.35Q339.22-25.35 340.97-24.68 342.72-24 343.97-22.88 345.22-21.75 346.02-20.35L346.02-20.35ZM329.57-12.5L329.57-12.5Q329.57-8.2 331.79-5.68 334.02-3.15 337.82-3.15L337.82-3.15Q340.12-3.15 341.97-4.25 343.82-5.35 344.89-7.45 345.97-9.55 345.97-12.5L345.97-12.5Q345.97-15.45 344.89-17.53 343.82-19.6 341.97-20.73 340.12-21.85 337.82-21.85L337.82-21.85Q334.07-21.85 331.82-19.3 329.57-16.75 329.57-12.5ZM367.87 0.35L367.87 0.35Q364.37 0.35 361.64-1.35 358.92-3.05 357.37-6 355.82-8.95 355.82-12.75L355.82-12.75Q355.82-16.4 357.37-19.25 358.92-22.1 361.62-23.73 364.32-25.35 367.77-25.35L367.77-25.35Q371.17-25.35 373.84-23.85 376.52-22.35 378.02-19.7 379.52-17.05 379.42-13.65L379.42-13.65Q379.42-13.1 379.37-12.5 379.32-11.9 379.27-11.2L379.27-11.2 359.92-11.2Q360.02-8.85 361.07-7.05 362.12-5.25 363.84-4.23 365.57-3.2 367.77-3.2L367.77-3.2Q370.67-3.2 372.69-4.3 374.72-5.4 375.62-7.45L375.62-7.45 378.87-6.15Q377.37-3 374.52-1.33 371.67 0.35 367.87 0.35ZM359.97-14.45L375.32-14.45Q375.37-16.6 374.39-18.25 373.42-19.9 371.67-20.85 369.92-21.8 367.62-21.8L367.62-21.8Q365.62-21.8 363.97-20.85 362.32-19.9 361.24-18.23 360.17-16.55 359.97-14.45L359.97-14.45ZM385.56 0L385.56-25 389.01-25 389.26-21.4Q390.36-23.2 392.24-24.28 394.11-25.35 396.71-25.35L396.71-25.35Q399.36-25.35 401.54-24.08 403.71-22.8 404.91-20.3L404.91-20.3Q406.06-22.85 408.41-24.1 410.76-25.35 413.61-25.35L413.61-25.35Q416.41-25.35 418.56-24.13 420.71-22.9 421.91-20.48 423.11-18.05 423.11-14.4L423.11-14.4 423.11 0 419.36 0 419.36-13.95Q419.36-17.85 417.69-19.88 416.01-21.9 412.91-21.9L412.91-21.9Q409.76-21.9 407.91-19.73 406.06-17.55 406.06-13.3L406.06-13.3 406.06 0 402.31 0 402.31-13.95Q402.31-17.85 400.71-19.88 399.11-21.9 396.01-21.9L396.01-21.9Q392.86-21.9 391.09-19.73 389.31-17.55 389.31-13.3L389.31-13.3 389.31 0 385.56 0ZM440.86 0.35L440.86 0.35Q437.36 0.35 434.64-1.35 431.91-3.05 430.36-6 428.81-8.95 428.81-12.75L428.81-12.75Q428.81-16.4 430.36-19.25 431.91-22.1 434.61-23.73 437.31-25.35 440.76-25.35L440.76-25.35Q444.16-25.35 446.84-23.85 449.51-22.35 451.01-19.7 452.51-17.05 452.41-13.65L452.41-13.65Q452.41-13.1 452.36-12.5 452.31-11.9 452.26-11.2L452.26-11.2 432.91-11.2Q433.01-8.85 434.06-7.05 435.11-5.25 436.84-4.23 438.56-3.2 440.76-3.2L440.76-3.2Q443.66-3.2 445.69-4.3 447.71-5.4 448.61-7.45L448.61-7.45 451.86-6.15Q450.36-3 447.51-1.33 444.66 0.35 440.86 0.35ZM432.96-14.45L448.31-14.45Q448.36-16.6 447.39-18.25 446.41-19.9 444.66-20.85 442.91-21.8 440.61-21.8L440.61-21.8Q438.61-21.8 436.96-20.85 435.31-19.9 434.24-18.23 433.16-16.55 432.96-14.45L432.96-14.45ZM458.56 0L458.56-25 462.01-25 462.21-21.45Q463.41-23.3 465.36-24.33 467.31-25.35 469.91-25.35L469.91-25.35Q472.76-25.35 474.91-24.13 477.06-22.9 478.26-20.48 479.46-18.05 479.46-14.4L479.46-14.4 479.46 0 475.71 0 475.71-13.95Q475.71-17.85 474.03-19.88 472.36-21.9 469.21-21.9L469.21-21.9Q465.96-21.9 464.13-19.75 462.31-17.6 462.31-13.4L462.31-13.4 462.31 0 458.56 0ZM484.56-25L488.31-25 488.31-32 492.06-32 492.06-25 498.71-25 498.71-21.5 492.06-21.5 492.06-8.05Q492.06-5.75 493.03-4.7 494-3.65 495.53-3.45 497.06-3.25 498.71-3.45L498.71-3.45 498.71-0.2Q496.75 0.25 494.88 0.05 493-0.15 491.53-1.07 490.06-2 489.18-3.7 488.31-5.4 488.31-8.05L488.31-8.05 488.31-21.5 484.56-21.5 484.56-25ZM502.75-6.45L506.35-7.65Q506.65-6.15 507.45-5.18 508.25-4.2 509.53-3.7 510.8-3.2 512.5-3.2L512.5-3.2Q515.15-3.2 516.53-4.23 517.9-5.25 517.9-6.8L517.9-6.8Q517.9-8.1 517.08-8.9 516.25-9.7 514.9-10.23 513.55-10.75 511.9-11.15L511.9-11.15Q510.6-11.45 509.1-11.88 507.6-12.3 506.25-13.05 504.9-13.8 504.05-15 503.2-16.2 503.2-18.15L503.2-18.15Q503.2-20.3 504.38-21.93 505.55-23.55 507.63-24.45 509.7-25.35 512.4-25.35L512.4-25.35Q515.5-25.35 517.93-24 520.35-22.65 521.3-19.8L521.3-19.8 517.8-18.6Q517.45-19.9 516.53-20.6 515.6-21.3 514.48-21.55 513.35-21.8 512.25-21.8L512.25-21.8Q510-21.8 508.63-20.93 507.25-20.05 507.25-18.3L507.25-18.3Q507.25-17.35 507.7-16.73 508.15-16.1 508.95-15.7 509.75-15.3 510.85-15.03 511.95-14.75 513.25-14.4L513.25-14.4Q514.7-14.05 516.2-13.53 517.7-13 519-12.18 520.3-11.35 521.13-10.08 521.95-8.8 521.95-6.9L521.95-6.9Q521.95-4.7 520.75-3.08 519.55-1.45 517.43-0.55 515.3 0.35 512.5 0.35L512.5 0.35Q508.65 0.35 506.13-1.38 503.6-3.1 502.75-6.45L502.75-6.45ZM540.5-6.45L544.1-7.65Q544.4-6.15 545.2-5.18 546-4.2 547.27-3.7 548.55-3.2 550.25-3.2L550.25-3.2Q552.9-3.2 554.27-4.23 555.65-5.25 555.65-6.8L555.65-6.8Q555.65-8.1 554.82-8.9 554-9.7 552.65-10.23 551.3-10.75 549.65-11.15L549.65-11.15Q548.35-11.45 546.85-11.88 545.35-12.3 544-13.05 542.65-13.8 541.8-15 540.95-16.2 540.95-18.15L540.95-18.15Q540.95-20.3 542.12-21.93 543.3-23.55 545.37-24.45 547.45-25.35 550.15-25.35L550.15-25.35Q553.25-25.35 555.67-24 558.1-22.65 559.05-19.8L559.05-19.8 555.55-18.6Q555.2-19.9 554.27-20.6 553.35-21.3 552.22-21.55 551.1-21.8 550-21.8L550-21.8Q547.75-21.8 546.37-20.93 545-20.05 545-18.3L545-18.3Q545-17.35 545.45-16.73 545.9-16.1 546.7-15.7 547.5-15.3 548.6-15.03 549.7-14.75 551-14.4L551-14.4Q552.45-14.05 553.95-13.53 555.45-13 556.75-12.18 558.05-11.35 558.87-10.08 559.7-8.8 559.7-6.9L559.7-6.9Q559.7-4.7 558.5-3.08 557.3-1.45 555.17-0.55 553.05 0.35 550.25 0.35L550.25 0.35Q546.4 0.35 543.87-1.38 541.35-3.1 540.5-6.45L540.5-6.45ZM574.99-4.8L582.74-25 586.64-25 572.34 10 568.74 10 572.99-0.35 562.89-25 566.99-25 574.99-4.8ZM589.89-6.45L593.49-7.65Q593.79-6.15 594.59-5.18 595.39-4.2 596.67-3.7 597.94-3.2 599.64-3.2L599.64-3.2Q602.29-3.2 603.67-4.23 605.04-5.25 605.04-6.8L605.04-6.8Q605.04-8.1 604.22-8.9 603.39-9.7 602.04-10.23 600.69-10.75 599.04-11.15L599.04-11.15Q597.74-11.45 596.24-11.88 594.74-12.3 593.39-13.05 592.04-13.8 591.19-15 590.34-16.2 590.34-18.15L590.34-18.15Q590.34-20.3 591.52-21.93 592.69-23.55 594.77-24.45 596.84-25.35 599.54-25.35L599.54-25.35Q602.64-25.35 605.07-24 607.49-22.65 608.44-19.8L608.44-19.8 604.94-18.6Q604.59-19.9 603.67-20.6 602.74-21.3 601.62-21.55 600.49-21.8 599.39-21.8L599.39-21.8Q597.14-21.8 595.77-20.93 594.39-20.05 594.39-18.3L594.39-18.3Q594.39-17.35 594.84-16.73 595.29-16.1 596.09-15.7 596.89-15.3 597.99-15.03 599.09-14.75 600.39-14.4L600.39-14.4Q601.84-14.05 603.34-13.53 604.84-13 606.14-12.18 607.44-11.35 608.27-10.08 609.09-8.8 609.09-6.9L609.09-6.9Q609.09-4.7 607.89-3.08 606.69-1.45 604.57-0.55 602.44 0.35 599.64 0.35L599.64 0.35Q595.79 0.35 593.27-1.38 590.74-3.1 589.89-6.45L589.89-6.45ZM613.04-25L616.79-25 616.79-32 620.54-32 620.54-25 627.19-25 627.19-21.5 620.54-21.5 620.54-8.05Q620.54-5.75 621.51-4.7 622.49-3.65 624.01-3.45 625.54-3.25 627.19-3.45L627.19-3.45 627.19-0.2Q625.24 0.25 623.36 0.05 621.49-0.15 620.01-1.07 618.54-2 617.66-3.7 616.79-5.4 616.79-8.05L616.79-8.05 616.79-21.5 613.04-21.5 613.04-25ZM643.29 0.35L643.29 0.35Q639.79 0.35 637.06-1.35 634.34-3.05 632.79-6 631.24-8.95 631.24-12.75L631.24-12.75Q631.24-16.4 632.79-19.25 634.34-22.1 637.04-23.73 639.74-25.35 643.19-25.35L643.19-25.35Q646.59-25.35 649.26-23.85 651.94-22.35 653.44-19.7 654.94-17.05 654.84-13.65L654.84-13.65Q654.84-13.1 654.79-12.5 654.74-11.9 654.69-11.2L654.69-11.2 635.34-11.2Q635.44-8.85 636.49-7.05 637.54-5.25 639.26-4.23 640.99-3.2 643.19-3.2L643.19-3.2Q646.09-3.2 648.11-4.3 650.14-5.4 651.04-7.45L651.04-7.45 654.29-6.15Q652.79-3 649.94-1.33 647.09 0.35 643.29 0.35ZM635.39-14.45L650.74-14.45Q650.79-16.6 649.81-18.25 648.84-19.9 647.09-20.85 645.34-21.8 643.04-21.8L643.04-21.8Q641.04-21.8 639.39-20.85 637.74-19.9 636.66-18.23 635.59-16.55 635.39-14.45L635.39-14.45ZM660.98 0L660.98-25 664.43-25 664.68-21.4Q665.78-23.2 667.66-24.28 669.53-25.35 672.13-25.35L672.13-25.35Q674.78-25.35 676.96-24.08 679.13-22.8 680.33-20.3L680.33-20.3Q681.48-22.85 683.83-24.1 686.18-25.35 689.03-25.35L689.03-25.35Q691.83-25.35 693.98-24.13 696.13-22.9 697.33-20.48 698.53-18.05 698.53-14.4L698.53-14.4 698.53 0 694.78 0 694.78-13.95Q694.78-17.85 693.11-19.88 691.43-21.9 688.33-21.9L688.33-21.9Q685.18-21.9 683.33-19.73 681.48-17.55 681.48-13.3L681.48-13.3 681.48 0 677.73 0 677.73-13.95Q677.73-17.85 676.13-19.88 674.53-21.9 671.43-21.9L671.43-21.9Q668.28-21.9 666.51-19.73 664.73-17.55 664.73-13.3L664.73-13.3 664.73 0 660.98 0Z" opacity="1" transform="matrix(1,0,0,1,0,0)" fill="#c53683" class="slogan-text-1" data-fill-palette-color="secondary" id="text-1"></path></svg></g></svg></g></svg></g></svg></g><g></g></svg></g></svg></g></svg></g><g mask="url(#3a26e6b7-92e1-47bc-bb21-026675b2de53)"><g transform="matrix(2.7214206437291897, 0, 0, 2.7214206437291897, 105.85592739920546, 1)"><svg xmlns="http://www.w3.org/2000/svg" xmlns:xlink="http://www.w3.org/1999/xlink" version="1.1" x="0" y="0" viewBox="16.22937625884345 4.9 67.54124748231311 90.1" enable-background="new 0 0 100 100" xml:space="preserve" height="90.1" width="67.54124748231311" class="icon-none" data-fill-palette-color="accent" id="none"><path d="M63 50.6L83.3 56.9C84.1 57.1 83.8 58.3 83 58.2L62 55.1C61.4 55 61 55.8 61.5 56.2L77 70.7C77.6 71.2 76.9 72.2 76.2 71.7L58.6 59.8C58.1 59.4 57.4 60 57.6 60.6L65.3 80.4C65.6 81.1 64.5 81.6 64.1 81L53.5 62.5C53.2 62 52.3 62.1 52.3 62.8L50.7 94.4C50.6 95.2 49.5 95.2 49.4 94.4L47.8 62.8C47.8 62.2 46.9 62 46.6 62.5L35.8 80.9C35.4 81.6 34.3 81.1 34.6 80.3L42.3 60.5C42.5 59.9 41.9 59.4 41.3 59.7L23.8 71.7C23.1 72.1 22.4 71.2 23 70.7L38.5 56.2C39 55.8 38.6 55 38 55.1L17 58.2C16.2 58.3 16 57.2 16.7 56.9L37 50.6C37.6 50.4 37.6 49.6 37 49.4L16.7 43.1C15.9 42.9 16.2 41.7 17 41.8L38 44.9C38.6 45 39 44.2 38.5 43.8L23 29.3C22.4 28.8 23.1 27.8 23.8 28.3L41.4 40.2C41.9 40.6 42.6 40 42.4 39.4L34.7 19.6C34.4 18.9 35.5 18.4 35.9 19L46.6 37.4C46.9 37.9 47.8 37.8 47.8 37.1L49.4 5.5C49.5 4.7 50.6 4.7 50.7 5.5L52.3 37.1C52.3 37.7 53.2 37.9 53.5 37.4L64.2 19C64.6 18.3 65.7 18.8 65.4 19.6L57.7 39.4C57.5 40 58.1 40.5 58.7 40.2L76.3 28.3C77 27.9 77.7 28.8 77.1 29.3L61.4 43.8C61 44.2 61.3 45 62 44.9L83 41.8C83.8 41.7 84 42.8 83.3 43.1L63 49.4C62.4 49.6 62.4 50.4 63 50.6" fill="#fbd3e9" data-fill-palette-color="accent"></path></svg></g></g></svg></g><defs></defs></svg><rect width="395.52" height="247.2" fill="none" stroke="none" visibility="hidden"></rect></g></svg></g></svg>